<?xml version="1.0" encoding="UTF-8" standalone="no"?>
<svg
   xmlns:dc="http://purl.org/dc/elements/1.1/"
   xmlns:cc="http://creativecommons.org/ns#"
   xmlns:rdf="http://www.w3.org/1999/02/22-rdf-syntax-ns#"
   xmlns:svg="http://www.w3.org/2000/svg"
   xmlns="http://www.w3.org/2000/svg"
   xmlns:sodipodi="http://sodipodi.sourceforge.net/DTD/sodipodi-0.dtd"
   xmlns:inkscape="http://www.inkscape.org/namespaces/inkscape"
   viewBox="0 0 128 128"
   version="1.1"
   id="svg26"
   sodipodi:docname="sampleplugin.svg"
   inkscape:version="1.0.1 (3bc2e813f5, 2020-09-07)"
   inkscape:export-filename="/home/raphael/pgmodeler/plugins/sampleplugin/res/sampleplugin.png"
   inkscape:export-xdpi="96"
   inkscape:export-ydpi="96">
  <metadata
     id="metadata32">
    <rdf:RDF>
      <cc:Work
         rdf:about="">
        <dc:format>image/svg+xml</dc:format>
        <dc:type
           rdf:resource="http://purl.org/dc/dcmitype/StillImage" />
        <dc:title />
      </cc:Work>
    </rdf:RDF>
  </metadata>
  <defs
     id="defs30" />
  <sodipodi:namedview
     pagecolor="#ffffff"
     bordercolor="#666666"
     borderopacity="1"
     objecttolerance="10"
     gridtolerance="10"
     guidetolerance="10"
     inkscape:pageopacity="0"
     inkscape:pageshadow="2"
     inkscape:window-width="3840"
     inkscape:window-height="2027"
     id="namedview28"
     showgrid="false"
     inkscape:zoom="2.0246456"
     inkscape:cx="-182.0668"
     inkscape:cy="63.163101"
     inkscape:window-x="0"
     inkscape:window-y="0"
     inkscape:window-maximized="1"
     inkscape:current-layer="svg26"
     inkscape:document-rotation="0" />
  <g
     transform="matrix(5.333333333333333,0,0,5.333333333333333,0,0)"
     id="g24">
    <defs
       id="defs4">
      <style
         id="style2">.a{fill:#c2f3ff}.b{fill:#66e1ff}.c{fill:none;stroke:#191919;stroke-linecap:round;stroke-linejoin:round}</style>
    </defs>
    <path
       class="a"
       d="M18.308 23.5a3.11 3.11 0 0 1-2.808-3.16V4.5a1 1 0 0 1 1-1h4a1 1 0 0 1 1 1v15.84a3.11 3.11 0 0 1-2.808 3.16z"
       id="path6" />
    <path
       class="b"
       d="M 16.117367,14.510946 15.5,20.34 c -0.03378,1.62535 1.189947,3.002486 2.808,3.16 h 0.384 c 1.618053,-0.157514 2.841785,-1.53465 2.808,-3.16 V 14.5 Z"
       id="path8"
       sodipodi:nodetypes="ccccccc"
       style="fill:#78eb7b;fill-opacity:1;stroke:none;stroke-opacity:1" />
    <path
       class="c"
       d="m 15.941,21.981 c 0.550549,0.990589 1.619596,1.578546 2.751,1.513 1.61688,-0.157432 2.840197,-1.532793 2.808,-3.157 V 4.5 c 0,-0.5522847 -0.447715,-1 -1,-1 h -4 c -0.552285,0 -1,0.4477153 -1,1 V 10 m 6,-1.5 h -3 m 3,3 H 20 m 1.5,3 h -3 m 3,3 v 0"
       id="path10"
       sodipodi:nodetypes="cccssssccccccccc" />
    <path
       class="a"
       d="M16.5 16.5a6.908 6.908 0 0 1-.29 2H2.79a4.885 4.885 0 0 1-.16-.66 7 7 0 0 1 4.23-7.82 1 1 0 0 0 .64-.91V2.5h4v6.56a1.019 1.019 0 0 0 .61.95 7 7 0 0 1 4.39 6.49z"
       id="path12" />
    <path
       class="b"
       d="M15.113 12.345A7.194 7.194 0 0 1 13.05 18.5h3.16a6.955 6.955 0 0 0-1.1-6.155z"
       id="path14" />
    <path
       d="M16.21 18.5a7 7 0 0 1-13.42 0z"
       style="fill:#fff9bf"
       id="path16" />
    <path
       d="M13.05 18.5a7.3 7.3 0 0 1-10.211.133A7 7 0 0 0 16.21 18.5z"
       style="fill:#ffef5e"
       id="path18" />
    <path
       class="c"
       d="M16.5 16.5a6.908 6.908 0 0 1-.29 2H2.79a4.885 4.885 0 0 1-.16-.66 7 7 0 0 1 4.23-7.82 1 1 0 0 0 .64-.91V2.5h4v6.56a1.019 1.019 0 0 0 .61.95 7 7 0 0 1 4.39 6.49zm-.29 2a7 7 0 0 1-13.42 0zm-13.42 0h-.01"
       id="path20" />
    <path
       d="M12.5 1.5a1 1 0 0 0-1-1h-4a1 1 0 0 0 0 2h4a1 1 0 0 0 1-1z"
       style="stroke:#191919;stroke-linecap:round;stroke-linejoin:round;fill:#c2f3ff"
       id="path22" />
  </g>
</svg>
